<svg width="335" height="48" viewBox="0 0 335 48" fill="none" xmlns="http://www.w3.org/2000/svg">
<path d="M9.62399 17.5074V46.6602H0.801514V1.26855H7.83398L31.2972 31.1888V1.33254H40.1197V46.6602H32.7673L9.62399 17.5074Z" fill="#111111"/>
<path d="M63.7048 47.3002C61.0194 47.3002 58.5899 46.8527 56.4164 45.9577C54.2428 45.02 52.3889 43.7624 50.8544 42.1857C49.3199 40.5659 48.1267 38.7332 47.274 36.6873C46.4643 34.5991 46.0594 32.4038 46.0594 30.1023C46.0594 26.9058 46.7625 23.9862 48.169 21.3438C49.6181 18.7011 51.6641 16.5916 54.3065 15.0144C56.9919 13.395 60.1457 12.585 63.7684 12.585C67.4341 12.585 70.5666 13.395 73.1667 15.0144C75.7664 16.5916 77.7484 18.7011 79.1122 21.3438C80.5187 23.9435 81.2222 26.7565 81.2222 29.7828C81.2222 30.2943 81.2008 30.8271 81.1582 31.3812C81.1155 31.8927 81.0729 32.3189 81.0302 32.6598H55.1379C55.3081 34.3645 55.7982 35.8563 56.6083 37.1348C57.4607 38.4137 58.5263 39.394 59.8048 40.0757C61.126 40.7152 62.5325 41.0347 64.0243 41.0347C65.729 41.0347 67.3275 40.6299 68.8193 39.8202C70.3537 38.9678 71.3976 37.8596 71.9518 36.4957L79.3042 38.5417C78.4941 40.2464 77.3222 41.7595 75.7877 43.0807C74.2959 44.4019 72.5273 45.4462 70.4813 46.2132C68.4358 46.938 66.1765 47.3002 63.7048 47.3002ZM54.9459 27.2254H72.4633C72.2926 25.5207 71.8025 24.0502 70.9928 22.8143C70.2258 21.5354 69.2028 20.5555 67.9243 19.8734C66.6453 19.149 65.2175 18.7864 63.6408 18.7864C62.1063 18.7864 60.6998 19.149 59.4213 19.8734C58.1851 20.5555 57.1621 21.5354 56.3524 22.8143C55.5854 24.0502 55.1165 25.5207 54.9459 27.2254Z" fill="#111111"/>
<path d="M174.921 13.1606C174.623 12.8624 174.069 12.4576 173.259 11.9461C172.492 11.4346 171.533 10.9445 170.382 10.4756C169.274 10.0068 168.059 9.60195 166.738 9.2607C165.417 8.87718 164.074 8.68561 162.71 8.68561C160.323 8.68561 158.512 9.13312 157.276 10.0281C156.083 10.9231 155.486 12.1803 155.486 13.8001C155.486 15.036 155.869 16.0163 156.637 16.7411C157.404 17.4654 158.555 18.0836 160.089 18.5951C161.623 19.1065 163.541 19.6603 165.843 20.2571C168.826 20.9819 171.405 21.8769 173.579 22.9421C175.795 23.9651 177.479 25.3289 178.629 27.034C179.823 28.6961 180.419 30.9126 180.419 33.6829C180.419 36.1124 179.972 38.2006 179.077 39.9484C178.182 41.6531 176.946 43.0382 175.369 44.1039C173.792 45.1695 172.002 45.9579 169.998 46.4694C167.995 46.9382 165.864 47.1724 163.605 47.1724C161.346 47.1724 159.087 46.9382 156.828 46.4694C154.57 46.0005 152.396 45.3397 150.307 44.4874C148.219 43.5924 146.301 42.5267 144.553 41.2909L148.453 33.6829C148.837 34.0665 149.519 34.578 150.499 35.2174C151.48 35.8138 152.673 36.432 154.079 37.0714C155.486 37.6678 157.02 38.1793 158.682 38.6055C160.345 39.0317 162.028 39.2449 163.733 39.2449C166.12 39.2449 167.931 38.8401 169.167 38.0304C170.404 37.2203 171.021 36.0698 171.021 34.578C171.021 33.2141 170.531 32.1485 169.551 31.3815C168.57 30.614 167.207 29.9536 165.459 29.3995C163.712 28.8027 161.645 28.1632 159.258 27.4815C156.402 26.6718 154.015 25.7768 152.097 24.7965C150.179 23.7735 148.752 22.4946 147.814 20.9605C146.876 19.4261 146.407 17.5081 146.407 15.2066C146.407 12.095 147.132 9.49531 148.581 7.4067C150.073 5.27583 152.076 3.67738 154.591 2.61175C157.106 1.50385 159.897 0.949707 162.966 0.949707C165.097 0.949707 167.1 1.18394 168.976 1.65277C170.894 2.1216 172.684 2.73972 174.346 3.50714C176.008 4.27418 177.5 5.10521 178.821 6.00021L174.921 13.1606Z" fill="#111111"/>
<path d="M205.581 44.9352C204.856 45.2334 203.982 45.5746 202.96 45.9581C201.937 46.3417 200.828 46.6399 199.635 46.8531C198.484 47.1087 197.312 47.2367 196.119 47.2367C194.542 47.2367 193.092 46.9598 191.771 46.4056C190.45 45.8515 189.384 44.9778 188.575 43.7842C187.808 42.5483 187.424 40.9499 187.424 38.9896V19.7459H183.013V13.1609H187.424V2.29248H195.991V13.1609H203.023V19.7459H195.991V36.1127C196.033 37.2632 196.353 38.0943 196.95 38.6057C197.546 39.1172 198.292 39.3732 199.188 39.3732C200.083 39.3732 200.956 39.2239 201.809 38.9257C202.661 38.6271 203.343 38.3715 203.855 38.1582L205.581 44.9352Z" fill="#111111"/>
<path d="M207.741 36.7513C207.741 34.5777 208.337 32.6811 209.531 31.0613C210.767 29.3993 212.472 28.1208 214.645 27.2254C216.819 26.3304 219.312 25.8828 222.125 25.8828C223.532 25.8828 224.96 25.9895 226.409 26.2028C227.858 26.4157 229.115 26.7565 230.181 27.2254V25.4353C230.181 23.3045 229.542 21.6634 228.263 20.5128C227.027 19.3619 225.173 18.7864 222.701 18.7864C220.868 18.7864 219.121 19.1063 217.458 19.7454C215.796 20.3848 214.049 21.3225 212.216 22.5584L209.467 16.9324C211.683 15.4833 213.942 14.3967 216.244 13.6719C218.588 12.9475 221.039 12.585 223.596 12.585C228.37 12.585 232.078 13.7786 234.72 16.1654C237.405 18.5522 238.748 21.962 238.748 26.3943V37.0712C238.748 37.9662 238.897 38.6053 239.195 38.9892C239.536 39.3727 240.069 39.6069 240.794 39.6922V46.6607C240.026 46.7887 239.323 46.8953 238.684 46.9806C238.087 47.066 237.576 47.1082 237.149 47.1082C235.445 47.1082 234.145 46.7247 233.25 45.9577C232.397 45.1902 231.865 44.2526 231.651 43.1447L231.46 41.4182C230.011 43.2936 228.199 44.7427 226.025 45.7657C223.852 46.7887 221.635 47.3002 219.376 47.3002C217.16 47.3002 215.157 46.8527 213.367 45.9577C211.619 45.02 210.234 43.7624 209.211 42.1857C208.231 40.5659 207.741 38.7546 207.741 36.7513ZM228.583 38.4777C229.052 37.9662 229.435 37.4547 229.733 36.9432C230.032 36.4317 230.181 35.9629 230.181 35.5367V32.1483C229.158 31.7221 228.05 31.4026 226.856 31.1893C225.663 30.9337 224.534 30.8058 223.468 30.8058C221.252 30.8058 219.419 31.2959 217.97 32.2763C216.563 33.2139 215.86 34.4711 215.86 36.0482C215.86 36.9006 216.095 37.7103 216.563 38.4777C217.032 39.2447 217.714 39.8629 218.609 40.3317C219.504 40.8005 220.57 41.0347 221.806 41.0347C223.084 41.0347 224.342 40.8005 225.578 40.3317C226.814 39.8202 227.815 39.2021 228.583 38.4777Z" fill="#111111"/>
<path d="M262.354 47.3002C259.625 47.3002 257.174 46.8527 255 45.9577C252.827 45.02 250.973 43.7415 249.439 42.1217C247.904 40.4593 246.71 38.5839 245.858 36.4957C245.048 34.4071 244.644 32.2123 244.644 29.9108C244.644 26.7565 245.347 23.8799 246.753 21.2799C248.202 18.6375 250.248 16.5276 252.891 14.9504C255.533 13.3737 258.666 12.585 262.288 12.585C265.91 12.585 269.024 13.3737 271.622 14.9504C274.224 16.5276 276.163 18.5948 277.439 21.1519L269.067 23.7093C268.341 22.4731 267.384 21.5354 266.189 20.8963C264.995 20.2142 263.673 19.8734 262.226 19.8734C260.605 19.8734 259.113 20.2995 257.749 21.1519C256.428 21.962 255.384 23.1339 254.617 24.6683C253.85 26.1601 253.466 27.9075 253.466 29.9108C253.466 31.8714 253.85 33.6188 254.617 35.1532C255.427 36.645 256.492 37.8382 257.813 38.7332C259.135 39.5856 260.605 40.0118 262.226 40.0118C263.246 40.0118 264.208 39.8415 265.103 39.5003C266.038 39.1594 266.872 38.6906 267.597 38.0938C268.318 37.4974 268.853 36.8153 269.195 36.0482L277.567 38.6053C276.803 40.2677 275.671 41.7595 274.181 43.0807C272.731 44.4019 271.005 45.4462 269.001 46.2132C267.042 46.938 264.824 47.3002 262.354 47.3002Z" fill="#111111"/>
<path d="M305.728 46.6609L295.948 32.2125L291.407 36.6875V46.6609H282.841V-0.00927734H291.407V28.2485L304.898 13.2246H313.976L301.508 27.4175L314.868 46.6609H305.728Z" fill="#111111"/>
<path d="M90.0996 8.67623L97.3768 1.08613C99.0741 -0.6841 102.012 -0.245139 103.118 1.9439L110.635 16.8286C112.232 19.9918 108.859 23.3558 105.701 21.7504L91.0551 14.3069C88.9281 13.2257 88.4485 10.3984 90.0996 8.67623Z" fill="#DA004C"/>
<path fill-rule="evenodd" clip-rule="evenodd" d="M91.4049 37.3534L98.4432 44.8862C99.2459 45.7451 100.654 45.5652 101.215 44.5317L109.197 29.8316C110.05 28.2607 108.38 26.5226 106.776 27.3118L91.9028 34.632C90.8659 35.1423 90.6158 36.5089 91.4049 37.3534ZM90.0652 38.6052L97.1038 46.1375C98.7608 47.9113 101.668 47.5398 102.827 45.4066L110.808 30.7061C112.514 27.5646 109.174 24.0881 105.967 25.6668L91.0932 32.9874C88.9526 34.0406 88.4365 36.8618 90.0652 38.6052Z" fill="#E86E04"/>
<path fill-rule="evenodd" clip-rule="evenodd" d="M126.45 44.936L133.728 37.3459C134.528 36.5118 134.295 35.1421 133.265 34.6186L118.619 27.1751C117.04 26.3724 115.354 28.0542 116.152 29.6356L123.67 44.5206C124.205 45.5808 125.628 45.7938 126.45 44.936ZM119.45 25.5406C116.291 23.9351 112.918 27.2992 114.516 30.4623L122.033 45.347C123.139 47.5361 126.076 47.975 127.774 46.2048L135.051 38.6147C136.702 36.8926 136.222 34.0652 134.095 32.9841L119.45 25.5406Z" fill="#DA004C"/>
<path fill-rule="evenodd" clip-rule="evenodd" d="M122.949 2.00239C124.107 -0.13042 127.015 -0.50191 128.672 1.27143L135.71 8.80413C137.339 10.5472 136.823 13.3683 134.682 14.422L119.809 21.7422C116.601 23.3208 113.262 19.8447 114.967 16.7029L122.949 2.00239Z" fill="#E86E04"/>
<path d="M328.669 47.3001C331.935 47.3001 334.583 44.6524 334.583 41.3864C334.583 38.1203 331.935 35.4727 328.669 35.4727C325.403 35.4727 322.755 38.1203 322.755 41.3864C322.755 44.6524 325.403 47.3001 328.669 47.3001Z" fill="#DA004C"/>
</svg>
