<svg width="250" height="42" viewBox="0 0 250 42" fill="none" xmlns="http://www.w3.org/2000/svg">
<path d="M249.546 19.8345L233.968 1.87165C233.472 1.29631 232.799 0.824321 232.008 0.497757C231.217 0.171193 230.334 0.00020037 229.437 2.24782e-05L5.4589 0C4.01111 0 2.62262 0.442498 1.59888 1.23015C0.575133 2.0178 0 3.08609 0 4.2V37.8C0 38.9139 0.575133 39.9822 1.59888 40.7698C2.62262 41.5575 4.01111 42 5.4589 42L229.437 42C230.334 41.9987 231.216 41.8275 232.006 41.5016C232.796 41.1756 233.47 40.7049 233.968 40.131L249.536 22.1655C249.837 21.8212 249.998 21.4161 250 21.0012C250.002 20.5864 249.844 20.1804 249.546 19.8345Z" fill="url(#paint0_linear_287_2)"/>
<path d="M13.8808 9.72772H30.7139V11.4557H23.2954V31H21.2695V11.4557H13.8808V9.72772ZM40.079 22.2408C40.0591 21.5258 39.93 20.8406 39.6917 20.1851C39.4732 19.5297 39.1554 18.9537 38.7383 18.4571C38.3212 17.9407 37.8147 17.5335 37.2188 17.2356C36.623 16.9178 35.9477 16.7589 35.1929 16.7589C34.4183 16.7589 33.733 16.9178 33.1372 17.2356C32.5413 17.5335 32.0348 17.9407 31.6177 18.4571C31.2006 18.9537 30.863 19.5396 30.6048 20.2149C30.3664 20.8703 30.2075 21.5457 30.1281 22.2408H40.079ZM30.1281 23.8199C30.1281 24.4952 30.2175 25.2003 30.3962 25.9352C30.5948 26.6502 30.9027 27.2957 31.3198 27.8717C31.7369 28.4477 32.2632 28.9244 32.8988 29.3018C33.5344 29.6792 34.2991 29.8679 35.1929 29.8679C36.5634 29.8679 37.6359 29.5103 38.4106 28.7953C39.1852 28.0803 39.7215 27.1269 40.0194 25.9352H41.8964C41.4991 27.683 40.7642 29.0337 39.6917 29.987C38.639 30.9404 37.1394 31.4171 35.1929 31.4171C33.9813 31.4171 32.9286 31.2086 32.0348 30.7914C31.1609 30.3545 30.4459 29.7686 29.8897 29.0337C29.3336 28.2789 28.9165 27.4149 28.6384 26.4417C28.3802 25.4486 28.2511 24.4058 28.2511 23.3134C28.2511 22.3004 28.3802 21.3073 28.6384 20.3341C28.9165 19.3608 29.3336 18.4968 29.8897 17.7421C30.4459 16.9674 31.1609 16.3517 32.0348 15.8949C32.9286 15.4182 33.9813 15.1799 35.1929 15.1799C36.4244 15.1799 37.477 15.4281 38.351 15.9247C39.2249 16.4212 39.93 17.0767 40.4663 17.891C41.0224 18.6855 41.4197 19.6091 41.658 20.6618C41.8964 21.6946 41.9957 22.7473 41.9559 23.8199H30.1281ZM55.3198 20.4532C55.0616 19.3012 54.5849 18.3975 53.8897 17.7421C53.1945 17.0866 52.2213 16.7589 50.97 16.7589C50.0762 16.7589 49.2916 16.9476 48.6163 17.325C47.941 17.7023 47.3749 18.1989 46.9181 18.8146C46.4812 19.4303 46.1435 20.1354 45.9052 20.9299C45.6867 21.7046 45.5774 22.499 45.5774 23.3134C45.5774 24.1277 45.6867 24.9321 45.9052 25.7266C46.1435 26.5012 46.4812 27.1964 46.9181 27.8121C47.3749 28.4279 47.941 28.9244 48.6163 29.3018C49.2916 29.6792 50.0762 29.8679 50.97 29.8679C51.546 29.8679 52.0922 29.7586 52.6086 29.5401C53.125 29.3217 53.5818 29.0237 53.9791 28.6463C54.3763 28.2491 54.7041 27.7823 54.9623 27.2461C55.2205 26.7098 55.3794 26.1239 55.4389 25.4883H57.3159C57.0577 27.3553 56.3725 28.8152 55.2602 29.8679C54.1479 30.9007 52.7178 31.4171 50.97 31.4171C49.7981 31.4171 48.7554 31.2086 47.8417 30.7914C46.9479 30.3545 46.1932 29.7686 45.5774 29.0337C44.9617 28.2988 44.4949 27.4447 44.1772 26.4714C43.8594 25.4783 43.7005 24.4257 43.7005 23.3134C43.7005 22.2011 43.8594 21.1583 44.1772 20.1851C44.4949 19.192 44.9617 18.328 45.5774 17.5931C46.1932 16.8582 46.9479 16.2723 47.8417 15.8353C48.7554 15.3983 49.7981 15.1799 50.97 15.1799C52.6185 15.1799 54.0089 15.6168 55.141 16.4908C56.293 17.3647 56.9783 18.6855 57.1967 20.4532H55.3198ZM59.8946 9.72772H61.7716V18.2783H61.8312C62.1887 17.3448 62.8243 16.6 63.738 16.0439C64.6516 15.4679 65.6546 15.1799 66.7471 15.1799C67.8196 15.1799 68.7134 15.3189 69.4284 15.597C70.1633 15.875 70.7493 16.2723 71.1862 16.7887C71.6232 17.2852 71.9311 17.901 72.1098 18.6359C72.2886 19.3708 72.378 20.195 72.378 21.1087V31H70.501V21.4066C70.501 20.7512 70.4414 20.1454 70.3222 19.5892C70.2031 19.0132 69.9945 18.5167 69.6966 18.0996C69.3986 17.6825 68.9915 17.3548 68.4751 17.1164C67.9785 16.8781 67.3529 16.7589 66.5981 16.7589C65.8433 16.7589 65.168 16.8979 64.5722 17.176C63.9962 17.4342 63.4996 17.8017 63.0825 18.2783C62.6853 18.7352 62.3675 19.2913 62.1291 19.9468C61.9106 20.5823 61.7915 21.2775 61.7716 22.0323V31H59.8946V9.72772ZM84.0399 20.3341C84.0994 19.4403 84.2881 18.6657 84.6059 18.0102C84.9237 17.3548 85.3508 16.8185 85.887 16.4014C86.4432 15.9843 87.0887 15.6764 87.8236 15.4778C88.5585 15.2792 89.3728 15.1799 90.2666 15.1799C90.9419 15.1799 91.6172 15.2494 92.2925 15.3884C92.9679 15.5076 93.5737 15.7459 94.1099 16.1034C94.6462 16.461 95.0832 16.9674 95.4208 17.6229C95.7585 18.2585 95.9273 19.0927 95.9273 20.1255V28.2888C95.9273 29.0436 96.2948 29.421 97.0297 29.421C97.2481 29.421 97.4468 29.3812 97.6255 29.3018V30.8808C97.407 30.9206 97.2084 30.9503 97.0297 30.9702C96.8708 30.9901 96.6622 31 96.404 31C95.9273 31 95.54 30.9404 95.2421 30.8212C94.964 30.6822 94.7455 30.4935 94.5866 30.2552C94.4277 30.0168 94.3185 29.7388 94.2589 29.421C94.2192 29.0833 94.1993 28.7159 94.1993 28.3186H94.1397C93.8021 28.8152 93.4545 29.2621 93.097 29.6593C92.7593 30.0367 92.372 30.3545 91.935 30.6127C91.5179 30.8709 91.0313 31.0695 90.4752 31.2086C89.9389 31.3476 89.2934 31.4171 88.5386 31.4171C87.8236 31.4171 87.1483 31.3277 86.5127 31.149C85.897 30.9901 85.3508 30.7319 84.8741 30.3743C84.4172 29.997 84.0498 29.5302 83.7717 28.9741C83.5135 28.3981 83.3844 27.7228 83.3844 26.9481C83.3844 25.8756 83.6228 25.0414 84.0994 24.4455C84.5761 23.8298 85.2018 23.363 85.9764 23.0452C86.7709 22.7274 87.6548 22.509 88.628 22.3898C89.6211 22.2508 90.6241 22.1217 91.6371 22.0025C92.0343 21.9628 92.3819 21.9131 92.6799 21.8535C92.9778 21.7939 93.2261 21.6946 93.4247 21.5556C93.6233 21.3967 93.7723 21.1881 93.8716 20.9299C93.9908 20.6717 94.0503 20.3341 94.0503 19.917C94.0503 19.2814 93.9411 18.765 93.7226 18.3677C93.524 17.9506 93.236 17.6229 92.8586 17.3846C92.5011 17.1462 92.0741 16.9873 91.5775 16.9079C91.1008 16.8086 90.5844 16.7589 90.0283 16.7589C88.8365 16.7589 87.8633 17.0469 87.1085 17.6229C86.3538 18.179 85.9565 19.0828 85.9168 20.3341H84.0399ZM94.0503 22.5983H93.9908C93.8716 22.8168 93.6432 22.9757 93.3055 23.075C92.9679 23.1743 92.6699 23.2439 92.4117 23.2836C91.6172 23.4226 90.793 23.5517 89.9389 23.6709C89.1047 23.7702 88.34 23.9291 87.6448 24.1476C86.9497 24.3661 86.3737 24.6839 85.9168 25.101C85.4799 25.4982 85.2614 26.0742 85.2614 26.829C85.2614 27.3057 85.3508 27.7327 85.5295 28.1101C85.7281 28.4676 85.9863 28.7854 86.3041 29.0634C86.6219 29.3217 86.9894 29.5203 87.4065 29.6593C87.8236 29.7983 88.2506 29.8679 88.6876 29.8679C89.4026 29.8679 90.0879 29.7586 90.7433 29.5401C91.3988 29.3217 91.9648 29.0039 92.4415 28.5868C92.9381 28.1697 93.3254 27.6632 93.6034 27.0673C93.9014 26.4714 94.0503 25.7961 94.0503 25.0414V22.5983ZM99.6382 15.6268H101.515V18.2783H101.575C101.932 17.3448 102.568 16.6 103.481 16.0439C104.395 15.4679 105.398 15.1799 106.491 15.1799C107.563 15.1799 108.457 15.3189 109.172 15.597C109.907 15.875 110.493 16.2723 110.93 16.7887C111.367 17.2852 111.675 17.901 111.853 18.6359C112.032 19.3708 112.121 20.195 112.121 21.1087V31H110.245V21.4066C110.245 20.7512 110.185 20.1454 110.066 19.5892C109.947 19.0132 109.738 18.5167 109.44 18.0996C109.142 17.6825 108.735 17.3548 108.219 17.1164C107.722 16.8781 107.096 16.7589 106.342 16.7589C105.587 16.7589 104.912 16.8979 104.316 17.176C103.74 17.4342 103.243 17.8017 102.826 18.2783C102.429 18.7352 102.111 19.2913 101.873 19.9468C101.654 20.5823 101.535 21.2775 101.515 22.0323V31H99.6382V15.6268ZM129.196 31H127.468V28.0803H127.409C127.21 28.5768 126.912 29.0337 126.515 29.4508C126.137 29.8679 125.7 30.2254 125.204 30.5233C124.707 30.8014 124.171 31.0199 123.595 31.1788C123.039 31.3377 122.483 31.4171 121.927 31.4171C120.755 31.4171 119.732 31.2086 118.858 30.7914C118.004 30.3545 117.289 29.7686 116.713 29.0337C116.137 28.2789 115.71 27.4149 115.432 26.4417C115.154 25.4486 115.015 24.4058 115.015 23.3134C115.015 22.221 115.154 21.1881 115.432 20.2149C115.71 19.2218 116.137 18.3578 116.713 17.6229C117.289 16.8681 118.004 16.2723 118.858 15.8353C119.732 15.3983 120.755 15.1799 121.927 15.1799C122.503 15.1799 123.059 15.2494 123.595 15.3884C124.151 15.5274 124.668 15.7459 125.144 16.0439C125.621 16.3219 126.038 16.6695 126.396 17.0866C126.773 17.5037 127.061 17.9903 127.26 18.5465H127.319V9.72772H129.196V31ZM116.892 23.3134C116.892 24.1079 116.981 24.9023 117.16 25.6968C117.358 26.4714 117.656 27.1666 118.054 27.7823C118.471 28.3981 118.997 28.9046 119.633 29.3018C120.268 29.6792 121.033 29.8679 121.927 29.8679C122.92 29.8679 123.754 29.6792 124.429 29.3018C125.124 28.9046 125.681 28.3981 126.098 27.7823C126.535 27.1666 126.843 26.4714 127.021 25.6968C127.22 24.9023 127.319 24.1079 127.319 23.3134C127.319 22.5189 127.22 21.7343 127.021 20.9597C126.843 20.1652 126.535 19.4601 126.098 18.8444C125.681 18.2287 125.124 17.7321 124.429 17.3548C123.754 16.9575 122.92 16.7589 121.927 16.7589C121.033 16.7589 120.268 16.9575 119.633 17.3548C118.997 17.7321 118.471 18.2287 118.054 18.8444C117.656 19.4601 117.358 20.1652 117.16 20.9597C116.981 21.7343 116.892 22.5189 116.892 23.3134ZM139.163 9.72772H155.996V11.4557H148.578V31H146.552V11.4557H139.163V9.72772ZM154.129 20.3341C154.189 19.4403 154.378 18.6657 154.695 18.0102C155.013 17.3548 155.44 16.8185 155.976 16.4014C156.533 15.9843 157.178 15.6764 157.913 15.4778C158.648 15.2792 159.462 15.1799 160.356 15.1799C161.031 15.1799 161.707 15.2494 162.382 15.3884C163.057 15.5076 163.663 15.7459 164.199 16.1034C164.736 16.461 165.173 16.9674 165.51 17.6229C165.848 18.2585 166.017 19.0927 166.017 20.1255V28.2888C166.017 29.0436 166.384 29.421 167.119 29.421C167.338 29.421 167.536 29.3812 167.715 29.3018V30.8808C167.496 30.9206 167.298 30.9503 167.119 30.9702C166.96 30.9901 166.752 31 166.493 31C166.017 31 165.629 30.9404 165.332 30.8212C165.053 30.6822 164.835 30.4935 164.676 30.2552C164.517 30.0168 164.408 29.7388 164.348 29.421C164.309 29.0833 164.289 28.7159 164.289 28.3186H164.229C163.892 28.8152 163.544 29.2621 163.186 29.6593C162.849 30.0367 162.461 30.3545 162.024 30.6127C161.607 30.8709 161.121 31.0695 160.565 31.2086C160.028 31.3476 159.383 31.4171 158.628 31.4171C157.913 31.4171 157.238 31.3277 156.602 31.149C155.986 30.9901 155.44 30.7319 154.964 30.3743C154.507 29.997 154.139 29.5302 153.861 28.9741C153.603 28.3981 153.474 27.7228 153.474 26.9481C153.474 25.8756 153.712 25.0414 154.189 24.4455C154.666 23.8298 155.291 23.363 156.066 23.0452C156.86 22.7274 157.744 22.509 158.717 22.3898C159.711 22.2508 160.714 22.1217 161.727 22.0025C162.124 21.9628 162.471 21.9131 162.769 21.8535C163.067 21.7939 163.316 21.6946 163.514 21.5556C163.713 21.3967 163.862 21.1881 163.961 20.9299C164.08 20.6717 164.14 20.3341 164.14 19.917C164.14 19.2814 164.031 18.765 163.812 18.3677C163.613 17.9506 163.325 17.6229 162.948 17.3846C162.591 17.1462 162.164 16.9873 161.667 16.9079C161.19 16.8086 160.674 16.7589 160.118 16.7589C158.926 16.7589 157.953 17.0469 157.198 17.6229C156.443 18.179 156.046 19.0828 156.006 20.3341H154.129ZM164.14 22.5983H164.08C163.961 22.8168 163.733 22.9757 163.395 23.075C163.057 23.1743 162.759 23.2439 162.501 23.2836C161.707 23.4226 160.882 23.5517 160.028 23.6709C159.194 23.7702 158.429 23.9291 157.734 24.1476C157.039 24.3661 156.463 24.6839 156.006 25.101C155.569 25.4982 155.351 26.0742 155.351 26.829C155.351 27.3057 155.44 27.7327 155.619 28.1101C155.818 28.4676 156.076 28.7854 156.394 29.0634C156.711 29.3217 157.079 29.5203 157.496 29.6593C157.913 29.7983 158.34 29.8679 158.777 29.8679C159.492 29.8679 160.177 29.7586 160.833 29.5401C161.488 29.3217 162.054 29.0039 162.531 28.5868C163.028 28.1697 163.415 27.6632 163.693 27.0673C163.991 26.4714 164.14 25.7961 164.14 25.0414V22.5983ZM183.283 36.6607H181.407V28.0803H181.347C181.148 28.6364 180.86 29.123 180.483 29.5401C180.125 29.9572 179.708 30.3048 179.232 30.5829C178.755 30.861 178.239 31.0695 177.682 31.2086C177.146 31.3476 176.59 31.4171 176.014 31.4171C174.842 31.4171 173.819 31.2086 172.945 30.7914C172.091 30.3545 171.376 29.7686 170.8 29.0337C170.224 28.2789 169.797 27.4149 169.519 26.4417C169.241 25.4486 169.102 24.4058 169.102 23.3134C169.102 22.221 169.241 21.1881 169.519 20.2149C169.797 19.2218 170.224 18.3578 170.8 17.6229C171.376 16.8681 172.091 16.2723 172.945 15.8353C173.819 15.3983 174.842 15.1799 176.014 15.1799C176.57 15.1799 177.126 15.2593 177.682 15.4182C178.258 15.5771 178.795 15.8055 179.291 16.1034C179.788 16.4014 180.225 16.7589 180.602 17.176C180.999 17.5732 181.297 18.0301 181.496 18.5465H181.555V15.6268H183.283V36.6607ZM170.979 23.3134C170.979 24.1079 171.068 24.9023 171.247 25.6968C171.446 26.4714 171.744 27.1666 172.141 27.7823C172.558 28.3981 173.084 28.9046 173.72 29.3018C174.355 29.6792 175.12 29.8679 176.014 29.8679C177.007 29.8679 177.841 29.6792 178.517 29.3018C179.212 28.9046 179.768 28.3981 180.185 27.7823C180.622 27.1666 180.93 26.4714 181.109 25.6968C181.307 24.9023 181.407 24.1079 181.407 23.3134C181.407 22.5189 181.307 21.7343 181.109 20.9597C180.93 20.1652 180.622 19.4601 180.185 18.8444C179.768 18.2287 179.212 17.7321 178.517 17.3548C177.841 16.9575 177.007 16.7589 176.014 16.7589C175.12 16.7589 174.355 16.9575 173.72 17.3548C173.084 17.7321 172.558 18.2287 172.141 18.8444C171.744 19.4601 171.446 20.1652 171.247 20.9597C171.068 21.7343 170.979 22.5189 170.979 23.3134ZM185.316 15.6268H187.312L191.245 28.7953H191.304L195.058 15.6268H197.174L200.928 28.7953H200.987L204.92 15.6268H206.916L201.97 31H199.915L196.131 18.0698H196.071L192.317 31H190.262L185.316 15.6268ZM208.769 20.3341C208.829 19.4403 209.018 18.6657 209.335 18.0102C209.653 17.3548 210.08 16.8185 210.617 16.4014C211.173 15.9843 211.818 15.6764 212.553 15.4778C213.288 15.2792 214.102 15.1799 214.996 15.1799C215.671 15.1799 216.347 15.2494 217.022 15.3884C217.697 15.5076 218.303 15.7459 218.839 16.1034C219.376 16.461 219.813 16.9674 220.15 17.6229C220.488 18.2585 220.657 19.0927 220.657 20.1255V28.2888C220.657 29.0436 221.024 29.421 221.759 29.421C221.978 29.421 222.176 29.3812 222.355 29.3018V30.8808C222.137 30.9206 221.938 30.9503 221.759 30.9702C221.6 30.9901 221.392 31 221.134 31C220.657 31 220.27 30.9404 219.972 30.8212C219.694 30.6822 219.475 30.4935 219.316 30.2552C219.157 30.0168 219.048 29.7388 218.988 29.421C218.949 29.0833 218.929 28.7159 218.929 28.3186H218.869C218.532 28.8152 218.184 29.2621 217.826 29.6593C217.489 30.0367 217.102 30.3545 216.665 30.6127C216.247 30.8709 215.761 31.0695 215.205 31.2086C214.668 31.3476 214.023 31.4171 213.268 31.4171C212.553 31.4171 211.878 31.3277 211.242 31.149C210.626 30.9901 210.08 30.7319 209.604 30.3743C209.147 29.997 208.779 29.5302 208.501 28.9741C208.243 28.3981 208.114 27.7228 208.114 26.9481C208.114 25.8756 208.352 25.0414 208.829 24.4455C209.306 23.8298 209.931 23.363 210.706 23.0452C211.5 22.7274 212.384 22.509 213.358 22.3898C214.351 22.2508 215.354 22.1217 216.367 22.0025C216.764 21.9628 217.111 21.9131 217.409 21.8535C217.707 21.7939 217.956 21.6946 218.154 21.5556C218.353 21.3967 218.502 21.1881 218.601 20.9299C218.72 20.6717 218.78 20.3341 218.78 19.917C218.78 19.2814 218.671 18.765 218.452 18.3677C218.254 17.9506 217.966 17.6229 217.588 17.3846C217.231 17.1462 216.804 16.9873 216.307 16.9079C215.83 16.8086 215.314 16.7589 214.758 16.7589C213.566 16.7589 212.593 17.0469 211.838 17.6229C211.083 18.179 210.686 19.0828 210.646 20.3341H208.769ZM218.78 22.5983H218.72C218.601 22.8168 218.373 22.9757 218.035 23.075C217.697 23.1743 217.399 23.2439 217.141 23.2836C216.347 23.4226 215.522 23.5517 214.668 23.6709C213.834 23.7702 213.07 23.9291 212.374 24.1476C211.679 24.3661 211.103 24.6839 210.646 25.101C210.209 25.4982 209.991 26.0742 209.991 26.829C209.991 27.3057 210.08 27.7327 210.259 28.1101C210.458 28.4676 210.716 28.7854 211.034 29.0634C211.351 29.3217 211.719 29.5203 212.136 29.6593C212.553 29.7983 212.98 29.8679 213.417 29.8679C214.132 29.8679 214.817 29.7586 215.473 29.5401C216.128 29.3217 216.694 29.0039 217.171 28.5868C217.668 28.1697 218.055 27.6632 218.333 27.0673C218.631 26.4714 218.78 25.7961 218.78 25.0414V22.5983Z" fill="#292929"/>
<circle cx="180.5" cy="20.5" r="2.5" fill="#FBFBFB"/>
<defs>
<linearGradient id="paint0_linear_287_2" x1="0" y1="21" x2="250" y2="21" gradientUnits="userSpaceOnUse">
<stop stop-color="#FEDD8D"/>
<stop offset="1" stop-color="#FFBA0E"/>
</linearGradient>
</defs>
</svg>
