<svg width="268" height="68" viewBox="0 0 268 68" fill="none" xmlns="http://www.w3.org/2000/svg">
<path d="M32.776 10.7739C27.496 10.8699 22.936 10.7739 18.76 10.7259C18.856 20.4699 18.664 33.8139 18.76 43.3659C18.808 44.9019 17.032 46.1979 16.264 46.5339C16.216 36.6939 16.216 22.7739 16.312 12.9339C16.312 10.9659 16.072 11.0139 15.592 10.6779C12.664 10.6779 9.928 10.7739 7.192 11.0139C1.576 11.7819 3.688 22.6299 8.632 22.0059C5.752 23.4459 4.984 24.0219 3.688 22.6299C0.808 19.6539 1.144 8.9019 12.232 8.4699C20.008 8.2299 22.648 8.3739 28.168 8.3739C30.184 8.3739 30.088 8.0859 30.424 7.5579C30.664 7.9419 31.624 9.3819 32.776 10.7739ZM27.6854 41.7819C29.5094 41.8299 33.8774 41.7339 34.7894 41.7339C34.5494 42.5499 34.1654 43.4139 33.8774 44.1819C32.7254 44.1819 28.8854 44.2299 27.3494 44.1819C24.1334 44.0859 21.2054 43.0299 21.1094 39.3819C21.0134 35.0619 25.2854 28.8699 29.0774 28.0539C32.4854 27.3339 32.1494 31.9899 29.5574 35.0139C27.7814 37.1259 26.0054 38.4699 23.5094 38.9979C23.8934 41.3019 25.4774 41.6859 27.6854 41.7819ZM26.1014 30.8379C23.9894 32.3739 23.2214 35.6859 23.4134 38.1339C25.8134 37.5579 27.3494 36.3579 28.8374 34.5339C31.5254 31.1259 29.2694 28.5339 26.1014 30.8379ZM27.1574 24.1179L29.1734 22.2459L30.9494 24.1179L28.9814 26.0379L27.1574 24.1179ZM41.0448 41.7819C42.8688 41.8299 47.2368 41.7339 48.1488 41.7339C47.9088 42.5499 47.5248 43.4139 47.2368 44.1819C46.0848 44.1819 42.2448 44.2299 40.7088 44.1819C37.4928 44.0859 34.5648 43.0299 34.4688 39.3819C34.3727 35.0619 38.6448 28.8699 42.4368 28.0539C45.8448 27.3339 45.5088 31.9899 42.9168 35.0139C41.1408 37.1259 39.3648 38.4699 36.8688 38.9979C37.2528 41.3019 38.8368 41.6859 41.0448 41.7819ZM39.4608 30.8379C37.3488 32.3739 36.5808 35.6859 36.7728 38.1339C39.1728 37.5579 40.7088 36.3579 42.1968 34.5339C44.8848 31.1259 42.6288 28.5339 39.4608 30.8379ZM40.5168 24.1179L42.5328 22.2459L44.3088 24.1179L42.3408 26.0379L40.5168 24.1179ZM58.0521 40.0539C58.2441 42.5979 59.8761 41.7339 61.7961 41.7339C61.6521 42.3099 61.2681 43.1739 60.8361 44.1819C57.6681 44.1819 55.7481 44.9019 55.5561 40.0539C55.4601 37.3659 55.5561 34.6779 55.5081 31.9899C55.5081 26.7579 52.2441 30.0699 50.3241 32.5179C50.3241 35.2539 50.3241 38.0379 50.3241 40.7739C50.3721 42.3579 48.5001 43.6059 47.7321 43.9899C47.7321 40.1499 47.7801 36.3099 47.8281 32.5179C47.8761 30.4539 47.5881 30.5979 47.0601 30.2139C47.4441 29.9739 48.8841 29.0139 50.2761 27.9099C50.2761 29.0139 50.3241 30.1179 50.3241 31.2219C53.0601 27.6219 57.9081 25.9419 58.0041 31.9899C58.0041 34.6779 57.9561 37.3179 58.0521 40.0539ZM76.5333 41.8299C77.5413 41.8779 80.8053 41.7819 81.7173 41.7819C81.5253 42.3579 81.1413 43.1739 80.7573 44.1819C80.0853 44.1819 77.2053 44.2299 76.5333 44.2299C74.0853 44.2299 71.9253 43.8459 71.8293 40.0539C71.7812 38.9019 71.7812 33.9099 71.7812 28.8699H68.5172L69.2852 26.4219C69.5732 26.4219 70.5332 26.4219 71.7812 26.4219C71.7812 22.3899 71.8293 18.7419 71.8293 17.4939C71.8293 15.4299 71.5892 15.5259 71.0612 15.1899C71.3972 14.9499 72.8853 13.9899 74.2773 12.8859C74.2773 14.4219 74.2773 20.3739 74.2293 26.4219C76.4853 26.4219 78.6933 26.4219 79.1733 26.4219C78.9813 26.9979 78.5973 27.9099 78.2133 28.8699H74.2293C74.2293 33.6219 74.2293 38.0859 74.3253 40.0539C74.4213 41.4459 75.3813 41.7819 76.5333 41.8299ZM92.8559 39.5259C92.9999 42.0699 95.0159 41.7339 96.9359 41.7339C96.7439 42.3099 96.3599 43.1739 95.9759 44.1819C92.7599 44.1819 90.5039 44.9019 90.3599 40.0539C90.3599 40.0059 90.3599 39.9579 90.3599 39.9099C88.6799 41.9739 84.2639 46.2939 82.0559 43.6059C79.8959 40.9179 83.4479 32.1339 90.3599 30.7899C90.3599 28.9659 90.0719 29.0619 89.5919 28.7259C89.9279 28.4859 91.4159 27.5259 92.8079 26.4219C92.8559 29.3979 92.6639 34.7259 92.8559 39.5259ZM83.9279 41.7339C85.3199 44.9979 89.0159 40.5339 90.3119 38.8539C90.2639 37.1739 90.3119 35.0139 90.3119 32.9499C89.1599 32.8539 87.9599 32.7579 86.8559 33.3339C84.1679 34.6299 82.9679 39.4779 83.9279 41.7339ZM104.729 41.7339C104.537 42.3099 104.153 43.1739 103.769 44.1819C100.601 44.1819 97.0971 44.9019 96.9531 40.0539C96.8571 37.7499 96.9051 20.5659 96.9531 17.4939C97.0011 15.4299 96.7131 15.5259 96.1851 15.1899C96.5691 14.9499 98.0091 13.9899 99.4011 12.8859C99.4491 15.9099 99.2571 35.2539 99.4491 40.0539C99.6411 42.5979 102.809 41.7339 104.729 41.7339ZM115.584 35.7819C116.112 38.4699 114.288 42.4059 119.376 41.8779C119.232 42.4539 118.848 43.3179 118.464 44.3259C113.712 44.4219 113.28 43.5099 113.28 37.7979C113.28 35.9259 111.888 35.2059 109.296 35.5899C108.24 35.7819 107.232 36.2139 107.232 37.5579C107.232 38.4699 107.232 39.1899 107.232 39.9579C107.232 41.2539 107.232 42.5499 107.232 43.8459C107.28 45.4299 105.504 46.6779 104.736 47.0619C104.688 37.2219 104.688 27.2859 104.784 17.4939C104.832 15.4299 104.543 15.5259 104.015 15.1899C104.399 14.9499 105.84 13.9899 107.232 12.8859C107.328 19.9899 107.232 27.1419 107.232 34.2939C108.048 31.8939 109.68 28.9659 111.6 27.5739C112.608 26.8539 116.304 25.5579 117.312 28.3899C117.456 28.8219 117.023 29.5419 116.16 30.0219C112.32 27.4779 109.44 30.4539 107.76 35.3019C110.784 32.2299 114.864 32.5179 115.584 35.7819ZM142.157 33.1419C144.173 35.6859 150.557 47.9739 154.781 45.9579C153.821 49.4139 151.085 49.7019 149.501 48.0699C145.853 44.2779 142.061 35.5899 140.093 33.7659C139.949 33.6219 139.661 33.6219 139.469 33.6699C139.421 34.8219 139.373 35.9739 139.325 37.1259C138.749 48.2139 126.653 46.3899 125.357 42.5499C124.637 40.4379 125.309 38.9019 128.045 37.8939C126.509 47.3979 136.493 46.4379 137.021 37.5099C137.357 30.0699 137.021 20.0859 137.069 12.5979C137.069 11.4939 136.685 10.9659 135.629 10.8219C135.053 10.7259 132.989 10.6779 131.933 10.8699C131.645 10.9179 131.261 11.1579 131.309 11.5419C130.493 11.0139 130.205 10.3899 130.157 9.8619C130.013 8.1819 132.845 8.1339 133.949 8.2779C134.957 8.3739 136.157 9.2859 137.213 10.4379L138.317 8.2299C142.301 8.0379 146.909 8.2779 149.789 10.7739C156.941 17.0619 151.901 29.8299 143.069 32.9019C142.877 32.9499 142.349 33.0939 142.157 33.1419ZM148.061 12.9339C145.325 11.0139 141.101 11.0619 137.789 11.2059C138.845 12.5499 139.565 14.0859 139.613 15.2379C139.613 20.7099 139.661 26.3259 139.517 31.8459C140.237 31.9419 141.005 31.8939 141.821 31.7979C151.037 30.6459 155.309 18.2139 148.061 12.9339ZM157.621 27.4299C156.949 29.0139 161.989 33.8139 159.877 40.0059C157.909 45.7179 151.045 45.4299 150.709 40.3419C150.469 36.4539 153.829 33.5259 155.797 31.7019C154.789 29.7339 156.373 27.4299 157.621 27.4299ZM159.205 39.9579C159.877 38.3259 157.669 35.0619 156.805 33.5739C154.981 33.7179 153.493 34.6779 152.629 36.3099C150.421 40.4859 157.381 44.4219 159.205 39.9579ZM156.517 24.3579L158.533 22.4859L160.309 24.3579L158.341 26.2779L156.517 24.3579ZM152.677 24.3579L154.693 22.4859L156.517 24.3579L154.549 26.2779L152.677 24.3579ZM168.074 27.4299C167.402 29.0139 172.442 33.8139 170.33 40.0059C168.362 45.7179 161.498 45.4299 161.162 40.3419C160.922 36.4539 164.282 33.5259 166.25 31.7019C165.242 29.7339 166.826 27.4299 168.074 27.4299ZM169.658 39.9579C170.33 38.3259 168.122 35.0619 167.258 33.5739C165.434 33.7179 163.946 34.6779 163.082 36.3099C160.874 40.4859 167.834 44.4219 169.658 39.9579ZM166.97 24.3579L168.986 22.4859L170.762 24.3579L168.794 26.2779L166.97 24.3579ZM163.13 24.3579L165.146 22.4859L166.97 24.3579L165.002 26.2779L163.13 24.3579ZM189.855 40.0539C190.047 42.5979 191.727 41.7339 193.647 41.7339C193.455 42.3099 193.119 43.1739 192.687 44.1819C189.519 44.1819 187.551 44.9019 187.359 40.0539C187.263 37.3659 187.359 34.6779 187.311 31.9899C187.311 27.0939 184.095 29.6859 182.175 32.4219C182.175 35.2059 182.175 37.9899 182.175 40.7739C182.223 42.3579 180.399 43.6059 179.583 43.9899C179.583 40.0059 179.775 35.9259 179.679 31.9899C179.679 27.0939 176.463 29.7339 174.543 32.4699C174.543 35.2539 174.543 37.9899 174.543 40.7739C174.591 42.3579 172.719 43.6059 171.951 43.9899C171.951 40.1499 171.999 36.3099 172.047 32.5179C172.095 30.4539 171.807 30.5979 171.279 30.2139C171.663 29.9739 173.103 29.0139 174.495 27.9099C174.495 29.0139 174.543 30.0699 174.543 31.1739C177.183 27.7659 181.647 26.1339 182.127 31.1739C184.911 27.6219 189.711 25.9419 189.807 31.9899C189.807 34.6779 189.759 37.3179 189.855 40.0539Z" fill="black"/>
<path d="M267.797 8.94636L260.82 1.0115C260.598 0.757351 260.296 0.548856 259.942 0.404601C259.588 0.260345 259.192 0.184811 258.791 0.184733L158.479 0.184723C157.83 0.184723 157.208 0.380191 156.75 0.728126C156.291 1.07606 156.034 1.54796 156.034 2.04002V16.8824C156.034 17.3744 156.291 17.8463 156.75 18.1943C157.208 18.5422 157.83 18.7377 158.479 18.7377L258.791 18.7377C259.192 18.7371 259.587 18.6615 259.941 18.5175C260.295 18.3735 260.597 18.1656 260.82 17.9121L267.792 9.97605C267.927 9.82395 267.999 9.64499 268 9.46173C268.001 9.27848 267.93 9.09914 267.797 8.94636Z" fill="url(#paint0_linear_87_259)"/>
<path d="M162.947 4.5752H170.405V5.3408H167.118V14H166.221V5.3408H162.947V4.5752ZM174.554 10.1192C174.546 9.8024 174.488 9.4988 174.383 9.2084C174.286 8.918 174.145 8.6628 173.96 8.4428C173.776 8.214 173.551 8.0336 173.287 7.9016C173.023 7.7608 172.724 7.6904 172.39 7.6904C172.046 7.6904 171.743 7.7608 171.479 7.9016C171.215 8.0336 170.99 8.214 170.806 8.4428C170.621 8.6628 170.471 8.9224 170.357 9.2216C170.251 9.512 170.181 9.8112 170.146 10.1192H174.554ZM170.146 10.8188C170.146 11.118 170.185 11.4304 170.264 11.756C170.352 12.0728 170.489 12.3588 170.674 12.614C170.858 12.8692 171.092 13.0804 171.373 13.2476C171.655 13.4148 171.994 13.4984 172.39 13.4984C172.997 13.4984 173.472 13.34 173.815 13.0232C174.158 12.7064 174.396 12.284 174.528 11.756H175.36C175.184 12.5304 174.858 13.1288 174.383 13.5512C173.916 13.9736 173.252 14.1848 172.39 14.1848C171.853 14.1848 171.386 14.0924 170.99 13.9076C170.603 13.714 170.286 13.4544 170.04 13.1288C169.794 12.7944 169.609 12.4116 169.486 11.9804C169.371 11.5404 169.314 11.0784 169.314 10.5944C169.314 10.1456 169.371 9.7056 169.486 9.2744C169.609 8.8432 169.794 8.4604 170.04 8.126C170.286 7.7828 170.603 7.51 170.99 7.3076C171.386 7.0964 171.853 6.9908 172.39 6.9908C172.935 6.9908 173.402 7.1008 173.789 7.3208C174.176 7.5408 174.488 7.8312 174.726 8.192C174.972 8.544 175.148 8.9532 175.254 9.4196C175.36 9.8772 175.404 10.3436 175.386 10.8188H170.146ZM181.307 9.3272C181.193 8.8168 180.981 8.4164 180.673 8.126C180.365 7.8356 179.934 7.6904 179.38 7.6904C178.984 7.6904 178.636 7.774 178.337 7.9412C178.038 8.1084 177.787 8.3284 177.585 8.6012C177.391 8.874 177.241 9.1864 177.136 9.5384C177.039 9.8816 176.991 10.2336 176.991 10.5944C176.991 10.9552 177.039 11.3116 177.136 11.6636C177.241 12.0068 177.391 12.3148 177.585 12.5876C177.787 12.8604 178.038 13.0804 178.337 13.2476C178.636 13.4148 178.984 13.4984 179.38 13.4984C179.635 13.4984 179.877 13.45 180.106 13.3532C180.335 13.2564 180.537 13.1244 180.713 12.9572C180.889 12.7812 181.034 12.5744 181.149 12.3368C181.263 12.0992 181.333 11.8396 181.36 11.558H182.191C182.077 12.3852 181.773 13.032 181.281 13.4984C180.788 13.956 180.154 14.1848 179.38 14.1848C178.861 14.1848 178.399 14.0924 177.994 13.9076C177.598 13.714 177.263 13.4544 176.991 13.1288C176.718 12.8032 176.511 12.4248 176.37 11.9936C176.229 11.5536 176.159 11.0872 176.159 10.5944C176.159 10.1016 176.229 9.6396 176.37 9.2084C176.511 8.7684 176.718 8.3856 176.991 8.06C177.263 7.7344 177.598 7.4748 177.994 7.2812C178.399 7.0876 178.861 6.9908 179.38 6.9908C180.11 6.9908 180.726 7.1844 181.228 7.5716C181.738 7.9588 182.042 8.544 182.139 9.3272H181.307ZM183.334 4.5752H184.165V8.3636H184.192C184.35 7.95 184.632 7.62 185.037 7.3736C185.441 7.1184 185.886 6.9908 186.37 6.9908C186.845 6.9908 187.241 7.0524 187.558 7.1756C187.883 7.2988 188.143 7.4748 188.337 7.7036C188.53 7.9236 188.667 8.1964 188.746 8.522C188.825 8.8476 188.865 9.2128 188.865 9.6176V14H188.033V9.7496C188.033 9.4592 188.007 9.1908 187.954 8.9444C187.901 8.6892 187.809 8.4692 187.677 8.2844C187.545 8.0996 187.364 7.9544 187.135 7.8488C186.915 7.7432 186.638 7.6904 186.304 7.6904C185.969 7.6904 185.67 7.752 185.406 7.8752C185.151 7.9896 184.931 8.1524 184.746 8.3636C184.57 8.566 184.429 8.8124 184.324 9.1028C184.227 9.3844 184.174 9.6924 184.165 10.0268V14H183.334V4.5752ZM194.032 9.2744C194.058 8.8784 194.142 8.5352 194.282 8.2448C194.423 7.9544 194.612 7.7168 194.85 7.532C195.096 7.3472 195.382 7.2108 195.708 7.1228C196.034 7.0348 196.394 6.9908 196.79 6.9908C197.09 6.9908 197.389 7.0216 197.688 7.0832C197.987 7.136 198.256 7.2416 198.493 7.4C198.731 7.5584 198.924 7.7828 199.074 8.0732C199.224 8.3548 199.298 8.7244 199.298 9.182V12.7988C199.298 13.1332 199.461 13.3004 199.787 13.3004C199.884 13.3004 199.972 13.2828 200.051 13.2476V13.9472C199.954 13.9648 199.866 13.978 199.787 13.9868C199.716 13.9956 199.624 14 199.51 14C199.298 14 199.127 13.9736 198.995 13.9208C198.872 13.8592 198.775 13.7756 198.704 13.67C198.634 13.5644 198.586 13.4412 198.559 13.3004C198.542 13.1508 198.533 12.988 198.533 12.812H198.506C198.357 13.032 198.203 13.23 198.044 13.406C197.895 13.5732 197.723 13.714 197.53 13.8284C197.345 13.9428 197.129 14.0308 196.883 14.0924C196.645 14.154 196.359 14.1848 196.025 14.1848C195.708 14.1848 195.409 14.1452 195.127 14.066C194.854 13.9956 194.612 13.8812 194.401 13.7228C194.199 13.5556 194.036 13.3488 193.913 13.1024C193.798 12.8472 193.741 12.548 193.741 12.2048C193.741 11.7296 193.847 11.36 194.058 11.096C194.269 10.8232 194.546 10.6164 194.89 10.4756C195.242 10.3348 195.633 10.238 196.064 10.1852C196.504 10.1236 196.949 10.0664 197.398 10.0136C197.574 9.996 197.728 9.974 197.86 9.9476C197.992 9.9212 198.102 9.8772 198.19 9.8156C198.278 9.7452 198.344 9.6528 198.388 9.5384C198.44 9.424 198.467 9.2744 198.467 9.0896C198.467 8.808 198.418 8.5792 198.322 8.4032C198.234 8.2184 198.106 8.0732 197.939 7.9676C197.78 7.862 197.591 7.7916 197.371 7.7564C197.16 7.7124 196.931 7.6904 196.685 7.6904C196.157 7.6904 195.726 7.818 195.391 8.0732C195.057 8.3196 194.881 8.72 194.863 9.2744H194.032ZM198.467 10.2776H198.44C198.388 10.3744 198.286 10.4448 198.137 10.4888C197.987 10.5328 197.855 10.5636 197.741 10.5812C197.389 10.6428 197.024 10.7 196.645 10.7528C196.276 10.7968 195.937 10.8672 195.629 10.964C195.321 11.0608 195.066 11.2016 194.863 11.3864C194.67 11.5624 194.573 11.8176 194.573 12.152C194.573 12.3632 194.612 12.5524 194.692 12.7196C194.78 12.878 194.894 13.0188 195.035 13.142C195.176 13.2564 195.338 13.3444 195.523 13.406C195.708 13.4676 195.897 13.4984 196.091 13.4984C196.408 13.4984 196.711 13.45 197.002 13.3532C197.292 13.2564 197.543 13.1156 197.754 12.9308C197.974 12.746 198.146 12.5216 198.269 12.2576C198.401 11.9936 198.467 11.6944 198.467 11.36V10.2776ZM200.942 7.1888H201.774V8.3636H201.8C201.959 7.95 202.24 7.62 202.645 7.3736C203.05 7.1184 203.494 6.9908 203.978 6.9908C204.454 6.9908 204.85 7.0524 205.166 7.1756C205.492 7.2988 205.752 7.4748 205.945 7.7036C206.139 7.9236 206.275 8.1964 206.354 8.522C206.434 8.8476 206.473 9.2128 206.473 9.6176V14H205.642V9.7496C205.642 9.4592 205.615 9.1908 205.562 8.9444C205.51 8.6892 205.417 8.4692 205.285 8.2844C205.153 8.0996 204.973 7.9544 204.744 7.8488C204.524 7.7432 204.247 7.6904 203.912 7.6904C203.578 7.6904 203.279 7.752 203.015 7.8752C202.76 7.9896 202.54 8.1524 202.355 8.3636C202.179 8.566 202.038 8.8124 201.932 9.1028C201.836 9.3844 201.783 9.6924 201.774 10.0268V14H200.942V7.1888ZM214.038 14H213.273V12.7064H213.246C213.158 12.9264 213.026 13.1288 212.85 13.3136C212.683 13.4984 212.489 13.6568 212.269 13.7888C212.049 13.912 211.812 14.0088 211.557 14.0792C211.31 14.1496 211.064 14.1848 210.817 14.1848C210.298 14.1848 209.845 14.0924 209.458 13.9076C209.079 13.714 208.763 13.4544 208.507 13.1288C208.252 12.7944 208.063 12.4116 207.94 11.9804C207.817 11.5404 207.755 11.0784 207.755 10.5944C207.755 10.1104 207.817 9.6528 207.94 9.2216C208.063 8.7816 208.252 8.3988 208.507 8.0732C208.763 7.7388 209.079 7.4748 209.458 7.2812C209.845 7.0876 210.298 6.9908 210.817 6.9908C211.073 6.9908 211.319 7.0216 211.557 7.0832C211.803 7.1448 212.032 7.2416 212.243 7.3736C212.454 7.4968 212.639 7.6508 212.797 7.8356C212.965 8.0204 213.092 8.236 213.18 8.4824H213.207V4.5752H214.038V14ZM208.587 10.5944C208.587 10.9464 208.626 11.2984 208.705 11.6504C208.793 11.9936 208.925 12.3016 209.101 12.5744C209.286 12.8472 209.519 13.0716 209.801 13.2476C210.083 13.4148 210.421 13.4984 210.817 13.4984C211.257 13.4984 211.627 13.4148 211.926 13.2476C212.234 13.0716 212.481 12.8472 212.665 12.5744C212.859 12.3016 212.995 11.9936 213.075 11.6504C213.163 11.2984 213.207 10.9464 213.207 10.5944C213.207 10.2424 213.163 9.8948 213.075 9.5516C212.995 9.1996 212.859 8.8872 212.665 8.6144C212.481 8.3416 212.234 8.1216 211.926 7.9544C211.627 7.7784 211.257 7.6904 210.817 7.6904C210.421 7.6904 210.083 7.7784 209.801 7.9544C209.519 8.1216 209.286 8.3416 209.101 8.6144C208.925 8.8872 208.793 9.1996 208.705 9.5516C208.626 9.8948 208.587 10.2424 208.587 10.5944ZM218.454 4.5752H225.912V5.3408H222.625V14H221.728V5.3408H218.454V4.5752ZM225.085 9.2744C225.111 8.8784 225.195 8.5352 225.336 8.2448C225.477 7.9544 225.666 7.7168 225.903 7.532C226.15 7.3472 226.436 7.2108 226.761 7.1228C227.087 7.0348 227.448 6.9908 227.844 6.9908C228.143 6.9908 228.442 7.0216 228.741 7.0832C229.041 7.136 229.309 7.2416 229.547 7.4C229.784 7.5584 229.978 7.7828 230.127 8.0732C230.277 8.3548 230.352 8.7244 230.352 9.182V12.7988C230.352 13.1332 230.515 13.3004 230.84 13.3004C230.937 13.3004 231.025 13.2828 231.104 13.2476V13.9472C231.007 13.9648 230.919 13.978 230.84 13.9868C230.77 13.9956 230.677 14 230.563 14C230.352 14 230.18 13.9736 230.048 13.9208C229.925 13.8592 229.828 13.7756 229.758 13.67C229.687 13.5644 229.639 13.4412 229.613 13.3004C229.595 13.1508 229.586 12.988 229.586 12.812H229.56C229.41 13.032 229.256 13.23 229.098 13.406C228.948 13.5732 228.777 13.714 228.583 13.8284C228.398 13.9428 228.183 14.0308 227.936 14.0924C227.699 14.154 227.413 14.1848 227.078 14.1848C226.761 14.1848 226.462 14.1452 226.181 14.066C225.908 13.9956 225.666 13.8812 225.455 13.7228C225.252 13.5556 225.089 13.3488 224.966 13.1024C224.852 12.8472 224.795 12.548 224.795 12.2048C224.795 11.7296 224.9 11.36 225.111 11.096C225.323 10.8232 225.6 10.6164 225.943 10.4756C226.295 10.3348 226.687 10.238 227.118 10.1852C227.558 10.1236 228.002 10.0664 228.451 10.0136C228.627 9.996 228.781 9.974 228.913 9.9476C229.045 9.9212 229.155 9.8772 229.243 9.8156C229.331 9.7452 229.397 9.6528 229.441 9.5384C229.494 9.424 229.52 9.2744 229.52 9.0896C229.52 8.808 229.472 8.5792 229.375 8.4032C229.287 8.2184 229.159 8.0732 228.992 7.9676C228.834 7.862 228.645 7.7916 228.425 7.7564C228.213 7.7124 227.985 7.6904 227.738 7.6904C227.21 7.6904 226.779 7.818 226.445 8.0732C226.11 8.3196 225.934 8.72 225.917 9.2744H225.085ZM229.52 10.2776H229.494C229.441 10.3744 229.34 10.4448 229.19 10.4888C229.041 10.5328 228.909 10.5636 228.794 10.5812C228.442 10.6428 228.077 10.7 227.699 10.7528C227.329 10.7968 226.99 10.8672 226.682 10.964C226.374 11.0608 226.119 11.2016 225.917 11.3864C225.723 11.5624 225.626 11.8176 225.626 12.152C225.626 12.3632 225.666 12.5524 225.745 12.7196C225.833 12.878 225.947 13.0188 226.088 13.142C226.229 13.2564 226.392 13.3444 226.577 13.406C226.761 13.4676 226.951 13.4984 227.144 13.4984C227.461 13.4984 227.765 13.45 228.055 13.3532C228.345 13.2564 228.596 13.1156 228.807 12.9308C229.027 12.746 229.199 12.5216 229.322 12.2576C229.454 11.9936 229.52 11.6944 229.52 11.36V10.2776ZM238.002 16.508H237.17V12.7064H237.144C237.056 12.9528 236.928 13.1684 236.761 13.3532C236.603 13.538 236.418 13.692 236.207 13.8152C235.996 13.9384 235.767 14.0308 235.52 14.0924C235.283 14.154 235.036 14.1848 234.781 14.1848C234.262 14.1848 233.809 14.0924 233.422 13.9076C233.043 13.714 232.726 13.4544 232.471 13.1288C232.216 12.7944 232.027 12.4116 231.904 11.9804C231.78 11.5404 231.719 11.0784 231.719 10.5944C231.719 10.1104 231.78 9.6528 231.904 9.2216C232.027 8.7816 232.216 8.3988 232.471 8.0732C232.726 7.7388 233.043 7.4748 233.422 7.2812C233.809 7.0876 234.262 6.9908 234.781 6.9908C235.028 6.9908 235.274 7.026 235.52 7.0964C235.776 7.1668 236.013 7.268 236.233 7.4C236.453 7.532 236.647 7.6904 236.814 7.8752C236.99 8.0512 237.122 8.2536 237.21 8.4824H237.236V7.1888H238.002V16.508ZM232.55 10.5944C232.55 10.9464 232.59 11.2984 232.669 11.6504C232.757 11.9936 232.889 12.3016 233.065 12.5744C233.25 12.8472 233.483 13.0716 233.765 13.2476C234.046 13.4148 234.385 13.4984 234.781 13.4984C235.221 13.4984 235.591 13.4148 235.89 13.2476C236.198 13.0716 236.444 12.8472 236.629 12.5744C236.823 12.3016 236.959 11.9936 237.038 11.6504C237.126 11.2984 237.17 10.9464 237.17 10.5944C237.17 10.2424 237.126 9.8948 237.038 9.5516C236.959 9.1996 236.823 8.8872 236.629 8.6144C236.444 8.3416 236.198 8.1216 235.89 7.9544C235.591 7.7784 235.221 7.6904 234.781 7.6904C234.385 7.6904 234.046 7.7784 233.765 7.9544C233.483 8.1216 233.25 8.3416 233.065 8.6144C232.889 8.8872 232.757 9.1996 232.669 9.5516C232.59 9.8948 232.55 10.2424 232.55 10.5944ZM238.902 7.1888H239.787L241.529 13.0232H241.556L243.219 7.1888H244.156L245.819 13.0232H245.846L247.588 7.1888H248.472L246.281 14H245.37L243.694 8.2712H243.668L242.004 14H241.094L238.902 7.1888ZM249.294 9.2744C249.32 8.8784 249.404 8.5352 249.544 8.2448C249.685 7.9544 249.874 7.7168 250.112 7.532C250.358 7.3472 250.644 7.2108 250.97 7.1228C251.296 7.0348 251.656 6.9908 252.052 6.9908C252.352 6.9908 252.651 7.0216 252.95 7.0832C253.249 7.136 253.518 7.2416 253.755 7.4C253.993 7.5584 254.186 7.7828 254.336 8.0732C254.486 8.3548 254.56 8.7244 254.56 9.182V12.7988C254.56 13.1332 254.723 13.3004 255.049 13.3004C255.146 13.3004 255.234 13.2828 255.313 13.2476V13.9472C255.216 13.9648 255.128 13.978 255.049 13.9868C254.978 13.9956 254.886 14 254.772 14C254.56 14 254.389 13.9736 254.257 13.9208C254.134 13.8592 254.037 13.7756 253.966 13.67C253.896 13.5644 253.848 13.4412 253.821 13.3004C253.804 13.1508 253.795 12.988 253.795 12.812H253.768C253.619 13.032 253.465 13.23 253.306 13.406C253.157 13.5732 252.985 13.714 252.792 13.8284C252.607 13.9428 252.391 14.0308 252.145 14.0924C251.907 14.154 251.621 14.1848 251.287 14.1848C250.97 14.1848 250.671 14.1452 250.389 14.066C250.116 13.9956 249.874 13.8812 249.663 13.7228C249.461 13.5556 249.298 13.3488 249.175 13.1024C249.06 12.8472 249.003 12.548 249.003 12.2048C249.003 11.7296 249.109 11.36 249.32 11.096C249.531 10.8232 249.808 10.6164 250.152 10.4756C250.504 10.3348 250.895 10.238 251.326 10.1852C251.766 10.1236 252.211 10.0664 252.66 10.0136C252.836 9.996 252.99 9.974 253.122 9.9476C253.254 9.9212 253.364 9.8772 253.452 9.8156C253.54 9.7452 253.606 9.6528 253.65 9.5384C253.702 9.424 253.729 9.2744 253.729 9.0896C253.729 8.808 253.68 8.5792 253.584 8.4032C253.496 8.2184 253.368 8.0732 253.201 7.9676C253.042 7.862 252.853 7.7916 252.633 7.7564C252.422 7.7124 252.193 7.6904 251.947 7.6904C251.419 7.6904 250.988 7.818 250.653 8.0732C250.319 8.3196 250.143 8.72 250.125 9.2744H249.294ZM253.729 10.2776H253.702C253.65 10.3744 253.548 10.4448 253.399 10.4888C253.249 10.5328 253.117 10.5636 253.003 10.5812C252.651 10.6428 252.286 10.7 251.907 10.7528C251.538 10.7968 251.199 10.8672 250.891 10.964C250.583 11.0608 250.328 11.2016 250.125 11.3864C249.932 11.5624 249.835 11.8176 249.835 12.152C249.835 12.3632 249.874 12.5524 249.954 12.7196C250.042 12.878 250.156 13.0188 250.297 13.142C250.438 13.2564 250.6 13.3444 250.785 13.406C250.97 13.4676 251.159 13.4984 251.353 13.4984C251.67 13.4984 251.973 13.45 252.264 13.3532C252.554 13.2564 252.805 13.1156 253.016 12.9308C253.236 12.746 253.408 12.5216 253.531 12.2576C253.663 11.9936 253.729 11.6944 253.729 11.36V10.2776Z" fill="#292929"/>
<path d="M120 60.1463C120.446 59.0325 122.76 58.1847 123.579 57.7458C128.334 55.1979 140.557 53.1644 145.87 51.9491C149.733 51.0655 146.088 65.6528 147.996 65.9615C151.083 66.4612 158.139 61.9467 160.468 60.8813C164.676 58.9562 168.792 56.8277 173.051 55.0195C176.745 53.4515 179.971 51.9211 183.594 54.21C185.828 55.6214 187.57 58.0026 190.529 57.2526C194.714 56.1917 198.497 53.2044 202.134 51" stroke="url(#paint1_linear_87_259)" stroke-width="2.92683" stroke-linecap="round"/>
<defs>
<linearGradient id="paint0_linear_87_259" x1="156.034" y1="9.4612" x2="268" y2="9.4612" gradientUnits="userSpaceOnUse">
<stop stop-color="#FEDD8D"/>
<stop offset="1" stop-color="#FFBA0E"/>
</linearGradient>
<linearGradient id="paint1_linear_87_259" x1="120" y1="58.5" x2="202.134" y2="58.5" gradientUnits="userSpaceOnUse">
<stop stop-color="#FFC5FE"/>
<stop offset="1" stop-color="#8A2488"/>
</linearGradient>
</defs>
</svg>
