<svg width="195" height="126" viewBox="0 0 195 126" fill="none" xmlns="http://www.w3.org/2000/svg">
<path d="M46.4809 81.1128H7.54447V74.1789L37.1087 32.8804H8.00165V26.0227H46.4047V32.728L16.6119 74.1789H46.4809V81.1128ZM77.7982 81.1128H44.1956V26.0227H77.7982V32.8804H48.234L51.6628 29.9087V50.1008H75.2076V56.7299H51.6628V77.303L48.234 74.1789H77.7982V81.1128ZM95.4002 81.1128H77.1893V26.0227H95.0954C100.582 26.0227 105.382 27.1911 109.497 29.5278C113.662 31.8136 116.888 35.0393 119.174 39.2047C121.51 43.3193 122.679 48.1197 122.679 53.6059C122.679 59.0412 121.536 63.8416 119.25 68.007C116.964 72.1216 113.764 75.3473 109.649 77.6839C105.585 79.9698 100.836 81.1128 95.4002 81.1128ZM84.6565 29.5278V77.6839L81.1515 74.1789H94.8669C98.9815 74.1789 102.512 73.3407 105.458 71.6644C108.455 69.9881 110.767 67.626 112.392 64.5781C114.068 61.4795 114.907 57.8221 114.907 53.6059C114.907 49.3388 114.068 45.656 112.392 42.5574C110.767 39.4587 108.43 37.0712 105.382 35.3949C102.385 33.7186 98.7783 32.8804 94.5621 32.8804H81.1515L84.6565 29.5278ZM154.352 81.1128H120.749V26.0227H154.352V32.8804H124.788L128.217 29.9087V50.1008H151.761V56.7299H128.217V77.303L124.788 74.1789H154.352V81.1128ZM161.21 26.0227V81.1128H153.743V26.0227H161.21ZM186.965 32.8804H154.276V26.0227H186.965V32.8804ZM182.85 57.7205H154.124V50.939H182.85V57.7205Z" fill="#F7D024"/>
<path d="M42.0969 83.3701H3.16043V76.4362L32.7247 35.1377H3.61761V28.28H42.0207V34.9853L12.2278 76.4362H42.0969V83.3701ZM73.4142 83.3701H39.8115V28.28H73.4142V35.1377H43.85L47.2788 32.1661V52.3581H70.8235V58.9872H47.2788V79.5603L43.85 76.4362H73.4142V83.3701ZM91.0162 83.3701H72.8052V28.28H90.7114C96.1976 28.28 100.998 29.4484 105.113 31.7851C109.278 34.071 112.504 37.2966 114.79 41.462C117.126 45.5766 118.295 50.377 118.295 55.8632C118.295 61.2985 117.152 66.0989 114.866 70.2643C112.58 74.3789 109.38 77.6046 105.265 79.9413C101.201 82.2272 96.4515 83.3701 91.0162 83.3701ZM80.2725 31.7851V79.9413L76.7675 76.4362H90.4828C94.5974 76.4362 98.1279 75.5981 101.074 73.9217C104.071 72.2454 106.382 69.8833 108.008 66.8355C109.684 63.7368 110.523 60.0794 110.523 55.8632C110.523 51.5962 109.684 47.9133 108.008 44.8147C106.382 41.716 104.046 39.3285 100.998 37.6522C98.0009 35.9759 94.3942 35.1377 90.178 35.1377H76.7675L80.2725 31.7851ZM149.968 83.3701H116.365V28.28H149.968V35.1377H120.404L123.832 32.1661V52.3581H147.377V58.9872H123.832V79.5603L120.404 76.4362H149.968V83.3701ZM156.826 28.28V83.3701H149.359V28.28H156.826ZM182.581 35.1377H149.892V28.28H182.581V35.1377ZM178.466 59.9778H149.74V53.1963H178.466V59.9778Z" fill="#387CFF"/>
<circle cx="190.024" cy="59.2536" r="4.23314" fill="#387CFF"/>
<path d="M2.73895 96.5027L9.70408 114.335H7.40707L0.417236 96.5027H2.73895ZM14.1493 97.5895V114.335H11.7288V97.5895H14.1493ZM6.34443 98.701V96.478H19.509V98.701H6.34443ZM29.1299 114.335H18.2376V96.478H29.1299V98.701H19.5466L20.6581 97.7377V104.283H28.2901V106.432H20.6581V113.1L19.5466 112.088H29.1299V114.335ZM36.3422 114.607C34.6462 114.607 33.1643 114.228 31.8964 113.471C30.6285 112.697 29.6405 111.627 28.9325 110.26C28.2244 108.877 27.8704 107.263 27.8704 105.419C27.8704 103.575 28.2327 101.961 28.9572 100.578C29.6817 99.1949 30.6861 98.1164 31.9705 97.3425C33.2713 96.5686 34.7697 96.1816 36.4657 96.1816C37.8159 96.1816 39.0344 96.4369 40.1212 96.9473C41.2079 97.4413 42.1135 98.1411 42.838 99.0467C43.5626 99.9524 44.0318 101.014 44.2459 102.233H41.6525C41.3232 101.064 40.6892 100.15 39.7507 99.4913C38.8121 98.8327 37.6924 98.5034 36.3916 98.5034C35.1896 98.5034 34.1357 98.7915 33.2301 99.3678C32.341 99.9277 31.6494 100.726 31.1554 101.764C30.6614 102.785 30.4144 103.995 30.4144 105.394C30.4144 106.778 30.6614 107.988 31.1554 109.025C31.6494 110.063 32.3492 110.869 33.2548 111.446C34.1604 112.006 35.206 112.285 36.3916 112.285C37.7089 112.285 38.845 111.964 39.8001 111.322C40.7716 110.664 41.422 109.783 41.7513 108.679H44.32C44.073 109.865 43.5708 110.902 42.8133 111.791C42.0724 112.681 41.142 113.372 40.0224 113.866C38.9191 114.36 37.6924 114.607 36.3422 114.607ZM46.0036 114.335H43.5831V96.478H46.0036V104.159H54.8458V96.478H57.2663V114.335H54.8458V106.407H46.0036V114.335ZM60.9988 96.5027L67.9639 114.335H65.6669L58.6771 96.5027H60.9988Z" fill="#387CFF"/>
<path d="M72.8151 114.335H70.2958L76.8163 96.478H79.5085L86.0538 114.335H83.5098L81.9043 109.89H74.3958L72.8151 114.335ZM77.8537 100.331L75.1368 107.79H81.1881L78.4465 100.331C78.3971 100.15 78.3394 99.9688 78.2736 99.7877C78.2077 99.5901 78.1665 99.4255 78.1501 99.2937C78.1171 99.4255 78.076 99.5901 78.0266 99.7877C77.9772 99.9688 77.9196 100.15 77.8537 100.331ZM86.7596 108.309C86.7596 107.041 87.0066 105.93 87.5006 104.975C88.011 104.019 88.7108 103.27 89.6 102.727C90.4892 102.184 91.5183 101.912 92.6874 101.912C94.2023 101.912 95.4619 102.315 96.4664 103.122C97.4708 103.929 98.0718 104.999 98.2694 106.333H95.9477C95.7501 105.559 95.3631 104.975 94.7868 104.579C94.2105 104.184 93.5354 103.987 92.7615 103.987C92.037 103.987 91.3948 104.168 90.835 104.53C90.2751 104.876 89.8388 105.37 89.5259 106.012C89.2131 106.654 89.0566 107.411 89.0566 108.284C89.0566 109.157 89.2048 109.914 89.5012 110.556C89.7976 111.182 90.2175 111.676 90.7609 112.038C91.3042 112.384 91.9382 112.557 92.6627 112.557C93.486 112.557 94.194 112.351 94.7868 111.94C95.3796 111.528 95.7748 110.968 95.9724 110.26H98.2941C98.1459 111.133 97.8083 111.898 97.2814 112.557C96.771 113.199 96.1123 113.71 95.3055 114.088C94.5151 114.451 93.6342 114.632 92.6627 114.632C91.4771 114.632 90.4398 114.368 89.5506 113.841C88.6779 113.315 87.9946 112.582 87.5006 111.643C87.0066 110.688 86.7596 109.577 86.7596 108.309ZM104.276 114.632C102.991 114.632 101.979 114.294 101.238 113.619C100.513 112.944 100.151 112.063 100.151 110.976C100.151 109.873 100.546 108.992 101.337 108.334C102.127 107.658 103.23 107.263 104.646 107.148L108.45 106.852V106.506C108.45 105.831 108.326 105.296 108.079 104.9C107.832 104.489 107.495 104.201 107.067 104.036C106.639 103.855 106.153 103.764 105.609 103.764C104.638 103.764 103.881 103.97 103.337 104.382C102.81 104.777 102.547 105.345 102.547 106.086H100.521C100.521 105.246 100.735 104.513 101.164 103.888C101.592 103.262 102.193 102.776 102.967 102.431C103.757 102.085 104.671 101.912 105.708 101.912C106.713 101.912 107.585 102.093 108.326 102.455C109.084 102.801 109.668 103.336 110.08 104.061C110.508 104.769 110.722 105.666 110.722 106.753V114.335H108.746L108.499 112.384C108.186 113.076 107.643 113.627 106.869 114.039C106.112 114.434 105.247 114.632 104.276 114.632ZM104.943 112.829C106.046 112.829 106.91 112.499 107.536 111.841C108.162 111.166 108.475 110.26 108.475 109.124V108.482L105.387 108.729C104.366 108.828 103.625 109.066 103.164 109.445C102.72 109.824 102.497 110.31 102.497 110.902C102.497 111.544 102.711 112.03 103.14 112.36C103.584 112.672 104.185 112.829 104.943 112.829ZM118.778 114.632C117.609 114.632 116.605 114.368 115.765 113.841C114.925 113.298 114.275 112.549 113.814 111.594C113.369 110.639 113.147 109.552 113.147 108.334C113.147 107.099 113.378 106.004 113.839 105.049C114.3 104.077 114.958 103.311 115.815 102.752C116.671 102.192 117.692 101.912 118.877 101.912C119.816 101.912 120.647 102.109 121.372 102.505C122.113 102.883 122.689 103.451 123.101 104.209V96.1569H125.398V114.335H123.323L123.126 112.137C122.73 112.944 122.146 113.562 121.372 113.99C120.614 114.418 119.75 114.632 118.778 114.632ZM119.248 112.532C120.038 112.532 120.713 112.351 121.273 111.989C121.849 111.627 122.294 111.125 122.607 110.482C122.92 109.84 123.076 109.099 123.076 108.259C123.076 107.42 122.92 106.687 122.607 106.061C122.294 105.419 121.849 104.917 121.273 104.555C120.713 104.192 120.038 104.011 119.248 104.011C118.457 104.011 117.782 104.201 117.222 104.579C116.663 104.942 116.234 105.444 115.938 106.086C115.642 106.712 115.493 107.436 115.493 108.259C115.493 109.099 115.642 109.84 115.938 110.482C116.234 111.125 116.663 111.627 117.222 111.989C117.782 112.351 118.457 112.532 119.248 112.532ZM133.959 114.632C132.79 114.632 131.752 114.368 130.847 113.841C129.941 113.298 129.233 112.557 128.723 111.619C128.212 110.664 127.957 109.56 127.957 108.309C127.957 107.041 128.204 105.93 128.698 104.975C129.208 104.019 129.9 103.27 130.773 102.727C131.662 102.184 132.691 101.912 133.86 101.912C135.013 101.912 136.009 102.159 136.849 102.653C137.705 103.147 138.363 103.838 138.824 104.728C139.302 105.617 139.541 106.662 139.541 107.864V108.729L129.192 108.753L129.241 107.197H137.219C137.219 106.193 136.914 105.386 136.305 104.777C135.696 104.168 134.881 103.863 133.86 103.863C133.086 103.863 132.419 104.036 131.859 104.382C131.316 104.711 130.896 105.205 130.6 105.864C130.32 106.506 130.18 107.28 130.18 108.185C130.18 109.634 130.509 110.754 131.168 111.544C131.826 112.318 132.773 112.705 134.008 112.705C134.914 112.705 135.655 112.524 136.231 112.162C136.807 111.8 137.194 111.273 137.392 110.581H139.565C139.269 111.866 138.635 112.862 137.664 113.57C136.692 114.278 135.457 114.632 133.959 114.632ZM144.456 114.335H142.134V102.258H144.209L144.53 104.481L144.233 104.283C144.48 103.608 144.933 103.048 145.592 102.603C146.267 102.142 147.082 101.912 148.037 101.912C149.107 101.912 149.996 102.2 150.704 102.776C151.413 103.353 151.874 104.118 152.088 105.073H151.668C151.832 104.118 152.285 103.353 153.026 102.776C153.767 102.2 154.681 101.912 155.768 101.912C157.151 101.912 158.238 102.315 159.028 103.122C159.818 103.929 160.214 105.032 160.214 106.432V114.335H157.941V107C157.941 106.045 157.694 105.312 157.2 104.802C156.723 104.275 156.072 104.011 155.249 104.011C154.673 104.011 154.162 104.143 153.718 104.406C153.29 104.653 152.952 105.016 152.705 105.493C152.458 105.971 152.335 106.531 152.335 107.173V114.335H150.038V106.975C150.038 106.02 149.799 105.296 149.321 104.802C148.844 104.291 148.193 104.036 147.37 104.036C146.794 104.036 146.283 104.168 145.839 104.431C145.411 104.678 145.073 105.04 144.826 105.518C144.579 105.979 144.456 106.531 144.456 107.173V114.335ZM164.154 102.258L168.402 114.014L166.97 115.99L161.709 102.258H164.154ZM162.03 119.745V117.843H163.586C163.965 117.843 164.311 117.802 164.623 117.719C164.936 117.653 165.224 117.497 165.488 117.25C165.751 117.019 165.974 116.649 166.155 116.138L171.243 102.258H173.639L167.933 117.052C167.521 118.09 167.003 118.839 166.377 119.3C165.751 119.761 164.977 119.992 164.055 119.992C163.677 119.992 163.323 119.967 162.993 119.917C162.664 119.885 162.343 119.827 162.03 119.745Z" fill="#387CFF"/>
</svg>
